<?xml version="1.0" encoding="utf-8"?>
<!-- Generator: Adobe Illustrator 27.5.0, SVG Export Plug-In . SVG Version: 6.00 Build 0)  -->
<svg version="1.1" xmlns="http://www.w3.org/2000/svg" xmlns:xlink="http://www.w3.org/1999/xlink" x="0px" y="0px"
	 viewBox="0 0 500 500" style="enable-background:new 0 0 500 500;" xml:space="preserve">
<g id="BACKGROUND">
	<rect style="fill:#FFFFFF;" width="500" height="500"/>
</g>
<g id="OBJECTS">
	<g>
		<g>
			<path style="fill:none;stroke:#000000;stroke-width:0.25;stroke-miterlimit:10;" d="M100.543,263.052L100.543,263.052
				c-10.598,0-19.189-8.591-19.189-19.189V190.83c0-10.598,8.591-19.189,19.189-19.189l0,0c10.598,0,19.189,8.591,19.189,19.189
				v53.033C119.731,254.46,111.14,263.052,100.543,263.052z"/>
			<g>
				<defs>
					<path id="SVGID_1_" d="M100.543,263.052L100.543,263.052c-10.598,0-19.189-8.591-19.189-19.189V190.83
						c0-10.598,8.591-19.189,19.189-19.189l0,0c10.598,0,19.189,8.591,19.189,19.189v53.033
						C119.731,254.46,111.14,263.052,100.543,263.052z"/>
				</defs>
				<clipPath id="SVGID_00000054972806445116250220000005906960008422192816_">
					<use xlink:href="#SVGID_1_"  style="overflow:visible;"/>
				</clipPath>
				<g style="clip-path:url(#SVGID_00000054972806445116250220000005906960008422192816_);">
					
						<line style="fill:none;stroke:#000000;stroke-width:0.25;stroke-miterlimit:10;" x1="132.497" y1="169.328" x2="63.69" y2="202.391"/>
					
						<line style="fill:none;stroke:#000000;stroke-width:0.25;stroke-miterlimit:10;" x1="132.497" y1="180.945" x2="63.69" y2="214.008"/>
					
						<line style="fill:none;stroke:#000000;stroke-width:0.25;stroke-miterlimit:10;" x1="132.497" y1="192.561" x2="63.69" y2="225.624"/>
					
						<line style="fill:none;stroke:#000000;stroke-width:0.25;stroke-miterlimit:10;" x1="132.497" y1="204.178" x2="63.69" y2="237.241"/>
					
						<line style="fill:none;stroke:#000000;stroke-width:0.25;stroke-miterlimit:10;" x1="132.497" y1="215.795" x2="63.69" y2="248.858"/>
					
						<line style="fill:none;stroke:#000000;stroke-width:0.25;stroke-miterlimit:10;" x1="132.497" y1="227.412" x2="63.69" y2="260.474"/>
					
						<line style="fill:none;stroke:#000000;stroke-width:0.25;stroke-miterlimit:10;" x1="132.497" y1="239.028" x2="63.69" y2="272.091"/>
				</g>
			</g>
		</g>
		<g>
			<defs>
				<path id="SVGID_00000032643654096766692120000018001540598073744513_" d="M401.245,127.275L401.245,127.275
					c10.142,0,18.365,8.222,18.365,18.364v97.617c0,10.142-8.222,18.364-18.365,18.364l0,0c-10.142,0-18.364-8.222-18.364-18.364
					v-97.617C382.88,135.497,391.102,127.275,401.245,127.275z"/>
			</defs>
			<clipPath id="SVGID_00000058590138574879088340000018106625087077867183_">
				<use xlink:href="#SVGID_00000032643654096766692120000018001540598073744513_"  style="overflow:visible;"/>
			</clipPath>
			
				<path style="clip-path:url(#SVGID_00000058590138574879088340000018106625087077867183_);fill:none;stroke:#000000;stroke-width:0.25;stroke-miterlimit:10;" d="
				M401.245,127.275L401.245,127.275c10.142,0,18.365,8.222,18.365,18.364v97.617c0,10.142-8.222,18.364-18.365,18.364l0,0
				c-10.142,0-18.364-8.222-18.364-18.364v-97.617C382.88,135.497,391.102,127.275,401.245,127.275z"/>
			<g style="clip-path:url(#SVGID_00000058590138574879088340000018106625087077867183_);">
				
					<line style="fill:none;stroke:#000000;stroke-width:0.25;stroke-miterlimit:10;" x1="373.48" y1="225.56" x2="435.895" y2="280.234"/>
				
					<line style="fill:none;stroke:#000000;stroke-width:0.25;stroke-miterlimit:10;" x1="373.48" y1="205.723" x2="435.895" y2="260.397"/>
				
					<line style="fill:none;stroke:#000000;stroke-width:0.25;stroke-miterlimit:10;" x1="373.48" y1="185.886" x2="435.895" y2="240.559"/>
				
					<line style="fill:none;stroke:#000000;stroke-width:0.25;stroke-miterlimit:10;" x1="373.48" y1="166.048" x2="435.895" y2="220.722"/>
				
					<line style="fill:none;stroke:#000000;stroke-width:0.25;stroke-miterlimit:10;" x1="373.48" y1="146.211" x2="435.895" y2="200.885"/>
				
					<line style="fill:none;stroke:#000000;stroke-width:0.25;stroke-miterlimit:10;" x1="373.48" y1="126.374" x2="435.895" y2="181.047"/>
				
					<line style="fill:none;stroke:#000000;stroke-width:0.25;stroke-miterlimit:10;" x1="373.48" y1="106.536" x2="435.895" y2="161.21"/>
				
					<line style="fill:none;stroke:#000000;stroke-width:0.25;stroke-miterlimit:10;" x1="373.48" y1="161.21" x2="435.895" y2="106.536"/>
				
					<line style="fill:none;stroke:#000000;stroke-width:0.25;stroke-miterlimit:10;" x1="373.48" y1="181.047" x2="435.895" y2="126.374"/>
				
					<line style="fill:none;stroke:#000000;stroke-width:0.25;stroke-miterlimit:10;" x1="373.48" y1="200.885" x2="435.895" y2="146.211"/>
				
					<line style="fill:none;stroke:#000000;stroke-width:0.25;stroke-miterlimit:10;" x1="373.48" y1="220.722" x2="435.895" y2="166.048"/>
				
					<line style="fill:none;stroke:#000000;stroke-width:0.25;stroke-miterlimit:10;" x1="373.48" y1="240.559" x2="435.895" y2="185.886"/>
				
					<line style="fill:none;stroke:#000000;stroke-width:0.25;stroke-miterlimit:10;" x1="373.48" y1="260.397" x2="435.895" y2="205.723"/>
				
					<line style="fill:none;stroke:#000000;stroke-width:0.25;stroke-miterlimit:10;" x1="373.48" y1="280.234" x2="435.895" y2="225.56"/>
			</g>
		</g>
		<g>
			<path style="fill:none;stroke:#000000;stroke-width:0.25;stroke-miterlimit:10;" d="M429.628,331.951L429.628,331.951
				c0,9.738-7.894,17.632-17.632,17.632H301.033c-9.738,0-17.632-7.894-17.632-17.631v0c0-9.738,7.894-17.631,17.632-17.631h110.964
				C421.734,314.319,429.628,322.213,429.628,331.951z"/>
			<g>
				<defs>
					<path id="SVGID_00000065051528699319099390000003375630608742717069_" d="M429.628,331.951L429.628,331.951
						c0,9.738-7.894,17.632-17.632,17.632H301.033c-9.738,0-17.632-7.894-17.632-17.631v0c0-9.738,7.894-17.631,17.632-17.631
						h110.964C421.734,314.319,429.628,322.213,429.628,331.951z"/>
				</defs>
				<clipPath id="SVGID_00000097464136808996115150000008980756371395941797_">
					<use xlink:href="#SVGID_00000065051528699319099390000003375630608742717069_"  style="overflow:visible;"/>
				</clipPath>
				<g style="clip-path:url(#SVGID_00000097464136808996115150000008980756371395941797_);">
					<path style="fill:none;stroke:#000000;stroke-width:0.25;stroke-miterlimit:10;" d="M428.602,291.605
						c-5.87,1.226-9.53,8.582-6.968,14.004c1.134,2.4,3.168,4.242,4.628,6.459c1.46,2.216,2.284,5.259,0.799,7.459
						c-0.649,0.962-1.649,1.62-2.608,2.274c-3.506,2.393-7.157,5.864-6.674,10.081c0.645,5.636,8.462,9.609,6.722,15.009
						c-1.154,3.581-5.71,4.534-8.546,7.006c-3.062,2.669-3.973,7.175-3.311,11.182c0.662,4.007,2.654,7.653,4.623,11.205"/>
					<path style="fill:none;stroke:#000000;stroke-width:0.25;stroke-miterlimit:10;" d="M421.217,291.22
						c-5.87,1.226-9.531,8.582-6.968,14.004c1.134,2.4,3.168,4.242,4.628,6.459c1.46,2.216,2.284,5.26,0.799,7.459
						c-0.649,0.962-1.649,1.62-2.608,2.274c-3.506,2.393-7.157,5.864-6.674,10.081c0.645,5.636,8.462,9.609,6.722,15.009
						c-1.154,3.581-5.71,4.534-8.546,7.006c-3.062,2.669-3.973,7.175-3.311,11.182c0.662,4.007,2.654,7.653,4.623,11.205"/>
					<path style="fill:none;stroke:#000000;stroke-width:0.25;stroke-miterlimit:10;" d="M413.833,290.834
						c-5.87,1.226-9.53,8.582-6.968,14.004c1.134,2.4,3.168,4.242,4.628,6.459c1.46,2.216,2.284,5.26,0.799,7.459
						c-0.649,0.962-1.649,1.62-2.608,2.274c-3.506,2.393-7.157,5.864-6.674,10.081c0.645,5.636,8.462,9.609,6.723,15.009
						c-1.154,3.581-5.71,4.534-8.546,7.006c-3.062,2.669-3.973,7.175-3.311,11.182c0.662,4.007,2.654,7.653,4.623,11.205"/>
					<path style="fill:none;stroke:#000000;stroke-width:0.25;stroke-miterlimit:10;" d="M406.449,290.448
						c-5.87,1.226-9.53,8.582-6.968,14.004c1.134,2.4,3.168,4.242,4.628,6.459c1.46,2.216,2.284,5.259,0.799,7.459
						c-0.649,0.962-1.649,1.62-2.608,2.274c-3.506,2.393-7.157,5.864-6.674,10.081c0.645,5.636,8.462,9.609,6.722,15.009
						c-1.154,3.581-5.71,4.534-8.546,7.006c-3.062,2.669-3.973,7.175-3.311,11.182c0.662,4.007,2.653,7.653,4.623,11.205"/>
					<path style="fill:none;stroke:#000000;stroke-width:0.25;stroke-miterlimit:10;" d="M399.065,290.062
						c-5.87,1.226-9.53,8.582-6.968,14.004c1.134,2.399,3.168,4.242,4.628,6.459c1.46,2.216,2.284,5.259,0.799,7.459
						c-0.649,0.962-1.649,1.62-2.608,2.274c-3.506,2.393-7.157,5.864-6.674,10.081c0.645,5.636,8.462,9.609,6.722,15.009
						c-1.154,3.581-5.71,4.534-8.546,7.006c-3.062,2.669-3.973,7.175-3.311,11.182c0.662,4.007,2.654,7.653,4.623,11.205"/>
					<path style="fill:none;stroke:#000000;stroke-width:0.25;stroke-miterlimit:10;" d="M391.681,289.676
						c-5.87,1.226-9.531,8.582-6.968,14.004c1.134,2.4,3.168,4.242,4.628,6.459c1.46,2.216,2.284,5.259,0.799,7.459
						c-0.649,0.962-1.649,1.62-2.608,2.274c-3.506,2.393-7.157,5.864-6.674,10.081c0.645,5.636,8.462,9.609,6.723,15.009
						c-1.154,3.581-5.71,4.534-8.546,7.006c-3.062,2.669-3.973,7.175-3.311,11.182c0.662,4.007,2.653,7.653,4.623,11.205"/>
					<path style="fill:none;stroke:#000000;stroke-width:0.25;stroke-miterlimit:10;" d="M384.297,289.29
						c-5.87,1.226-9.53,8.582-6.968,14.004c1.134,2.4,3.168,4.242,4.628,6.459c1.46,2.216,2.284,5.259,0.799,7.459
						c-0.649,0.962-1.649,1.62-2.608,2.274c-3.506,2.393-7.157,5.864-6.674,10.081c0.645,5.636,8.462,9.609,6.722,15.009
						c-1.154,3.581-5.71,4.534-8.546,7.006c-3.062,2.669-3.973,7.175-3.311,11.182c0.662,4.007,2.653,7.653,4.623,11.205"/>
					<path style="fill:none;stroke:#000000;stroke-width:0.25;stroke-miterlimit:10;" d="M376.913,288.904
						c-5.87,1.226-9.53,8.582-6.968,14.004c1.134,2.4,3.168,4.242,4.628,6.459c1.46,2.216,2.284,5.26,0.799,7.459
						c-0.649,0.962-1.649,1.62-2.608,2.274c-3.506,2.393-7.157,5.864-6.674,10.081c0.645,5.636,8.462,9.609,6.722,15.009
						c-1.154,3.581-5.71,4.534-8.546,7.006c-3.062,2.669-3.973,7.175-3.311,11.182c0.662,4.007,2.654,7.653,4.623,11.205"/>
					<path style="fill:none;stroke:#000000;stroke-width:0.25;stroke-miterlimit:10;" d="M369.529,288.518
						c-5.87,1.226-9.531,8.582-6.968,14.004c1.134,2.4,3.168,4.242,4.628,6.459s2.284,5.26,0.799,7.459
						c-0.649,0.962-1.649,1.62-2.608,2.274c-3.506,2.393-7.157,5.864-6.674,10.081c0.645,5.636,8.462,9.609,6.723,15.009
						c-1.154,3.581-5.71,4.534-8.546,7.006c-3.062,2.669-3.973,7.175-3.311,11.182c0.662,4.007,2.654,7.653,4.623,11.205"/>
					<path style="fill:none;stroke:#000000;stroke-width:0.25;stroke-miterlimit:10;" d="M362.144,288.132
						c-5.87,1.226-9.531,8.582-6.968,14.004c1.134,2.4,3.168,4.242,4.628,6.459s2.284,5.259,0.799,7.459
						c-0.649,0.962-1.649,1.62-2.608,2.274c-3.506,2.393-7.157,5.864-6.674,10.081c0.645,5.636,8.462,9.609,6.722,15.009
						c-1.154,3.581-5.71,4.534-8.546,7.006c-3.062,2.669-3.973,7.175-3.311,11.182c0.662,4.007,2.653,7.653,4.623,11.205"/>
					<path style="fill:none;stroke:#000000;stroke-width:0.25;stroke-miterlimit:10;" d="M354.76,287.746
						c-5.87,1.226-9.53,8.582-6.968,14.004c1.134,2.399,3.168,4.242,4.628,6.459c1.46,2.216,2.284,5.259,0.799,7.459
						c-0.649,0.962-1.649,1.62-2.608,2.274c-3.506,2.393-7.157,5.864-6.674,10.081c0.645,5.636,8.462,9.61,6.722,15.009
						c-1.154,3.581-5.71,4.534-8.546,7.006c-3.062,2.669-3.973,7.175-3.311,11.182c0.662,4.007,2.654,7.653,4.623,11.205"/>
					<path style="fill:none;stroke:#000000;stroke-width:0.25;stroke-miterlimit:10;" d="M347.376,287.361
						c-5.87,1.226-9.53,8.582-6.968,14.004c1.134,2.4,3.168,4.242,4.628,6.459c1.46,2.216,2.284,5.259,0.799,7.459
						c-0.649,0.962-1.649,1.62-2.608,2.274c-3.506,2.393-7.157,5.864-6.674,10.081c0.645,5.636,8.462,9.609,6.722,15.009
						c-1.154,3.581-5.71,4.534-8.546,7.006c-3.062,2.669-3.973,7.175-3.311,11.182c0.662,4.007,2.654,7.653,4.623,11.205"/>
					<path style="fill:none;stroke:#000000;stroke-width:0.25;stroke-miterlimit:10;" d="M339.992,286.975
						c-5.87,1.226-9.531,8.582-6.968,14.004c1.134,2.399,3.168,4.242,4.628,6.459c1.46,2.216,2.284,5.259,0.799,7.459
						c-0.649,0.962-1.649,1.62-2.608,2.274c-3.506,2.393-7.157,5.864-6.674,10.081c0.645,5.636,8.462,9.609,6.722,15.009
						c-1.154,3.581-5.71,4.534-8.546,7.006c-3.062,2.669-3.973,7.175-3.311,11.182c0.662,4.007,2.654,7.653,4.623,11.205"/>
					<path style="fill:none;stroke:#000000;stroke-width:0.25;stroke-miterlimit:10;" d="M332.608,286.589
						c-5.87,1.226-9.531,8.582-6.968,14.004c1.134,2.399,3.168,4.242,4.628,6.459c1.46,2.216,2.284,5.26,0.799,7.459
						c-0.649,0.962-1.649,1.62-2.608,2.274c-3.506,2.393-7.157,5.864-6.674,10.081c0.645,5.636,8.462,9.61,6.722,15.009
						c-1.154,3.581-5.71,4.534-8.546,7.006c-3.062,2.669-3.973,7.175-3.311,11.182c0.662,4.007,2.654,7.653,4.623,11.205"/>
					<path style="fill:none;stroke:#000000;stroke-width:0.25;stroke-miterlimit:10;" d="M325.224,286.203
						c-5.87,1.226-9.531,8.582-6.968,14.004c1.134,2.399,3.168,4.242,4.628,6.459c1.46,2.216,2.284,5.26,0.799,7.459
						c-0.649,0.962-1.649,1.62-2.608,2.274c-3.505,2.393-7.157,5.864-6.674,10.081c0.645,5.636,8.462,9.61,6.723,15.009
						c-1.154,3.581-5.71,4.534-8.546,7.006c-3.062,2.669-3.973,7.175-3.311,11.182c0.662,4.007,2.654,7.653,4.623,11.205"/>
					<path style="fill:none;stroke:#000000;stroke-width:0.25;stroke-miterlimit:10;" d="M317.84,285.817
						c-5.87,1.226-9.53,8.582-6.968,14.004c1.134,2.399,3.168,4.242,4.628,6.459c1.46,2.216,2.284,5.259,0.799,7.459
						c-0.649,0.962-1.649,1.62-2.608,2.274c-3.506,2.393-7.157,5.864-6.674,10.081c0.645,5.636,8.462,9.61,6.722,15.009
						c-1.154,3.581-5.71,4.534-8.546,7.006c-3.062,2.669-3.973,7.175-3.311,11.182c0.662,4.007,2.654,7.653,4.623,11.205"/>
					<path style="fill:none;stroke:#000000;stroke-width:0.25;stroke-miterlimit:10;" d="M310.456,285.431
						c-5.87,1.226-9.531,8.582-6.968,14.004c1.134,2.399,3.168,4.242,4.628,6.459c1.46,2.216,2.284,5.259,0.799,7.459
						c-0.649,0.962-1.649,1.62-2.608,2.274c-3.506,2.393-7.157,5.864-6.674,10.081c0.645,5.636,8.462,9.61,6.722,15.009
						c-1.154,3.581-5.71,4.534-8.546,7.006c-3.062,2.669-3.973,7.175-3.311,11.182c0.662,4.007,2.654,7.653,4.623,11.205"/>
					<path style="fill:none;stroke:#000000;stroke-width:0.25;stroke-miterlimit:10;" d="M303.071,285.045
						c-5.87,1.226-9.531,8.582-6.968,14.004c1.134,2.399,3.168,4.242,4.628,6.459c1.46,2.216,2.284,5.259,0.799,7.459
						c-0.649,0.962-1.649,1.62-2.608,2.274c-3.505,2.393-7.157,5.864-6.674,10.081c0.645,5.636,8.462,9.609,6.722,15.009
						c-1.154,3.581-5.71,4.534-8.546,7.006c-3.062,2.669-3.973,7.175-3.311,11.182c0.662,4.007,2.654,7.653,4.623,11.205"/>
					<path style="fill:none;stroke:#000000;stroke-width:0.25;stroke-miterlimit:10;" d="M295.687,284.659
						c-5.87,1.226-9.53,8.582-6.968,14.004c1.134,2.399,3.168,4.242,4.628,6.459c1.46,2.216,2.284,5.259,0.8,7.459
						c-0.649,0.962-1.649,1.62-2.608,2.274c-3.506,2.393-7.157,5.864-6.674,10.081c0.645,5.636,8.462,9.609,6.723,15.009
						c-1.154,3.581-5.71,4.534-8.546,7.006c-3.062,2.669-3.973,7.175-3.311,11.182c0.662,4.007,2.654,7.653,4.623,11.205"/>
				</g>
			</g>
		</g>
		<rect x="103.823" y="95.283" style="fill:#E6E9FF;" width="299.188" height="235.828"/>
		<rect x="103.823" y="79.312" style="fill:#C4CDFF;" width="299.188" height="17.337"/>
		<g>
			<g>
				<rect x="127.426" y="117.954" style="fill:#C4CDFF;" width="30.978" height="31.105"/>
				
					<rect x="164.479" y="117.954" style="fill:#D47172;stroke:#000000;stroke-width:0.5;stroke-miterlimit:10;" width="30.978" height="31.105"/>
				<rect x="201.531" y="117.954" style="fill:#C4CDFF;" width="30.978" height="31.105"/>
				<rect x="238.584" y="117.954" style="fill:#C4CDFF;" width="30.978" height="31.105"/>
				<rect x="275.636" y="117.954" style="fill:#C4CDFF;" width="30.978" height="31.105"/>
				
					<rect x="312.689" y="117.954" style="fill:#D47172;stroke:#000000;stroke-width:0.5;stroke-miterlimit:10;" width="30.978" height="31.105"/>
				<rect x="348.527" y="117.954" style="fill:#C4CDFF;" width="30.978" height="31.105"/>
			</g>
			<g>
				
					<rect x="127.426" y="155.463" style="fill:#D47172;stroke:#000000;stroke-width:0.5;stroke-miterlimit:10;" width="30.978" height="31.105"/>
				<rect x="164.479" y="155.463" style="fill:#C4CDFF;" width="30.978" height="31.105"/>
				<rect x="201.531" y="155.463" style="fill:#C4CDFF;" width="30.978" height="31.105"/>
				
					<rect x="238.584" y="155.463" style="fill:#D47172;stroke:#000000;stroke-width:0.5;stroke-miterlimit:10;" width="30.978" height="31.105"/>
				<rect x="275.636" y="155.463" style="fill:#C4CDFF;" width="30.978" height="31.105"/>
				<rect x="312.689" y="155.463" style="fill:#C4CDFF;" width="30.978" height="31.105"/>
				
					<rect x="348.527" y="155.463" style="fill:#D47172;stroke:#000000;stroke-width:0.5;stroke-miterlimit:10;" width="30.978" height="31.105"/>
			</g>
			<g>
				<rect x="127.426" y="192.972" style="fill:#C4CDFF;" width="30.978" height="31.105"/>
				<rect x="164.479" y="192.972" style="fill:#C4CDFF;" width="30.978" height="31.105"/>
				<rect x="201.531" y="192.972" style="fill:#C4CDFF;" width="30.978" height="31.105"/>
				<rect x="238.584" y="192.972" style="fill:#C4CDFF;" width="30.978" height="31.105"/>
				
					<rect x="275.636" y="192.972" style="fill:#D47172;stroke:#000000;stroke-width:0.5;stroke-miterlimit:10;" width="30.978" height="31.105"/>
				<rect x="312.689" y="192.972" style="fill:#C4CDFF;" width="30.978" height="31.105"/>
				<rect x="348.527" y="192.972" style="fill:#C4CDFF;" width="30.978" height="31.105"/>
			</g>
			<g>
				<rect x="127.426" y="230.482" style="fill:#C4CDFF;" width="30.978" height="31.105"/>
				<rect x="164.479" y="230.482" style="fill:#C4CDFF;" width="30.978" height="31.105"/>
				<rect x="201.531" y="230.482" style="fill:#C4CDFF;" width="30.978" height="31.105"/>
				
					<rect x="238.584" y="230.482" style="fill:#D47172;stroke:#000000;stroke-width:0.5;stroke-miterlimit:10;" width="30.978" height="31.105"/>
				<rect x="275.636" y="230.482" style="fill:#C4CDFF;" width="30.978" height="31.105"/>
				
					<rect x="312.689" y="230.482" style="fill:#D47172;stroke:#000000;stroke-width:0.5;stroke-miterlimit:10;" width="30.978" height="31.105"/>
				<rect x="348.527" y="230.482" style="fill:#C4CDFF;" width="30.978" height="31.105"/>
			</g>
			<g>
				<rect x="127.426" y="267.991" style="fill:#C4CDFF;" width="30.978" height="31.105"/>
				<rect x="164.479" y="267.991" style="fill:#C4CDFF;" width="30.978" height="31.105"/>
				<rect x="201.531" y="267.991" style="fill:#C4CDFF;" width="30.978" height="31.105"/>
				
					<rect x="238.584" y="267.991" style="fill:#D47172;stroke:#000000;stroke-width:0.5;stroke-miterlimit:10;" width="30.978" height="31.105"/>
			</g>
			
				<line style="fill:none;stroke:#222221;stroke-width:0.5;stroke-miterlimit:10;" x1="362.416" y1="171.04" x2="427.738" y2="170.665"/>
			<path d="M365.419,170.852c0,1.451-1.176,2.628-2.628,2.628c-1.451,0-2.628-1.176-2.628-2.628c0-1.451,1.176-2.628,2.628-2.628
				C364.243,168.225,365.419,169.401,365.419,170.852z"/>
		</g>
		<g>
			
				<line style="fill:none;stroke:#222221;stroke-width:0.5;stroke-miterlimit:10;" x1="71.193" y1="139.158" x2="142.915" y2="169.479"/>
			<path style="fill:#222221;" d="M143.121,169.435c0,1.736-1.408,3.144-3.144,3.144s-3.144-1.408-3.144-3.144
				c0-1.736,1.408-3.144,3.144-3.144S143.121,167.698,143.121,169.435z"/>
		</g>
		<g>
			<path style="fill:#D89CC7;stroke:#000000;stroke-width:0.5;stroke-miterlimit:10;" d="M443.632,152.275v35.839
				c-9.775-0.146-17.655-8.11-17.655-17.92S433.857,152.42,443.632,152.275z"/>
			<path d="M443.505,159.59v21.208c-5.784-0.086-10.447-4.799-10.447-10.604S437.721,159.676,443.505,159.59z"/>
		</g>
		<g>
			<polygon style="fill:#D47172;stroke:#000000;stroke-width:0.5;stroke-miterlimit:10;" points="440.098,303.792 430.627,298.715 
				421.076,303.638 422.978,293.062 415.343,285.5 425.99,284.04 430.823,274.443 435.501,284.117 446.122,285.748 438.367,293.186 
							"/>
			<polygon points="435.393,297.488 430.666,294.954 425.899,297.412 426.848,292.133 423.038,288.359 428.351,287.63 
				430.764,282.84 433.099,287.668 438.4,288.483 434.529,292.195 			"/>
		</g>
		<polygon points="300.677,104.643 294.968,101.582 289.21,104.55 290.357,98.175 285.755,93.616 292.172,92.736 295.086,86.951 
			297.905,92.783 304.308,93.766 299.633,98.25 		"/>
		<g>
			<g>
				<path style="fill:#FFFFFF;stroke:#222221;stroke-width:0.5;stroke-miterlimit:10;" d="M154.765,436.091
					c0.105,0.315,0.221,0.647,0.493,0.886c0.305,0.269,0.747,0.373,1.164,0.462c3.608,0.773,7.251,1.379,10.908,1.815
					c-1.461-10.928-0.448-21.987-2.064-32.846c-0.427-2.867-1.056-5.763-2.542-8.304c-1.487-2.542-3.948-4.714-6.976-5.363
					c-3.028-0.649-6.576,0.533-7.973,3.118c-0.943,1.744-0.831,3.805-0.627,5.749C148.388,413.456,150.973,424.719,154.765,436.091z
					"/>
				<path style="fill:#161111;" d="M153.763,435.929c1.795,0.303,3.656,0.368,5.408,0.303c2.751-0.103,5.531-0.511,8.015-1.609
					c0.896,0.466,1.873,1.485,2.894,1.896c3.509,1.412,7.018,2.825,10.527,4.237c2.636,1.061,5.297,2.135,7.607,3.725
					c0.555,0.382,1.12,0.838,1.285,1.462c0.711,2.698-6.404,1.872-7.836,1.858c-3.832-0.036-7.624-0.383-11.452-0.426
					c-3.234-0.036-6.479,0.052-9.7-0.109c-1.918-0.096-4.968,0.72-6.39-0.681c-1.111-1.094-1.043-3.313-0.734-4.667
					C153.83,439.97,153.838,437.89,153.763,435.929z"/>
				<path style="fill:#FFFFFF;stroke:#222221;stroke-width:0.5;stroke-miterlimit:10;" d="M108.516,437.42
					c-0.04,0.312-0.087,0.64-0.31,0.874c-0.25,0.262-0.672,0.358-1.072,0.44c-3.46,0.706-6.991,1.244-10.572,1.613
					c-1.07,0.11-1.562-36.759-1.155-39.91c0.194-1.502,0.428-3.015,1.001-4.43c0.25-0.617,0.576-1.228,1.108-1.663
					c0.553-0.452,1.287-0.674,2.017-0.754c1.986-0.218,3.994,0.556,5.511,1.77c1.516,1.215,2.596,2.835,3.477,4.508
					c3.054,5.795,3.912,12.562,2.489,18.874C109.628,424.887,109.32,431.125,108.516,437.42z"/>
				<path style="fill:#5F76E8;stroke:#000000;stroke-width:0.5;stroke-miterlimit:10;" d="M88.26,330.264
					c-0.4-13.445-0.703-26.428,1.578-39.792c1.229-7.202,3.104-14.392,5.993-21.12c2.214-5.155,4.593-10.303,8.024-14.742
					c3.43-4.439,8.03-8.165,13.449-9.615c5.287-1.414,9.368,0.001,14.031,2.288c4.067,1.995,8.028,3.041,9.954,7.743
					c1.56,3.81,1.197,7.684,3.057,11.369c5.253,10.406,5.928,20.737,7.491,32.197c1.847,13.536,3.767,27.063,5.758,40.582
					c3.784,25.686,7.837,51.339,12.142,76.954c-2.861,0.642-5.756,1.146-8.683,1.454c-5.087,0.536-10.196,0.402-15.268-0.149
					c-4.957-23.292-10.25-46.521-15.896-69.676c-2.825-11.584-5.193-22.914-8.112-33.909c-1.983,17.964-3.694,35.957-4.893,53.982
					c-0.611,9.189-1.09,18.385-1.401,27.587c-0.258,7.628-1.789,15.919-1.455,23.39c-5.832,0.964-12.796,0.084-18.772-0.313
					c-0.686-0.046-5.795-0.674-5.853-1.272c-1.563-16.139-1.503-29.112-1.865-46.06C87.268,358.42,88.633,342.756,88.26,330.264z"/>
				<g>
					<defs>
						<path id="SVGID_00000134240170456878105070000001612297847431154581_" d="M88.26,330.264
							c-0.4-13.446-0.703-26.429,1.578-39.792c0.978-5.729,6.059-25.489,13.768-26.564c0.47-0.065,0.838-0.028,1.171,0.046
							c0.404-2.01,1.23-3.899,2.384-5.626c3.363-5.035,9.465-8.71,15.71-10.088c6.927-1.528,15.372-0.651,18.419,6.788
							c1.56,3.81,1.197,7.684,3.057,11.369c5.253,10.406,5.928,20.737,7.491,32.197c1.847,13.536,3.767,27.063,5.758,40.582
							c3.784,25.686,7.837,51.339,12.142,76.954c-2.861,0.642-5.756,1.146-8.683,1.454c-5.087,0.536-10.196,0.402-15.268-0.149
							c-4.957-23.292-10.25-46.521-15.896-69.676c-2.825-11.584-5.193-22.914-8.112-33.909c-1.983,17.964-3.694,35.957-4.893,53.982
							c-0.611,9.189-1.09,18.385-1.401,27.587c-0.258,7.628-1.789,15.919-1.455,23.39c-5.832,0.964-12.796,0.084-18.772-0.313
							c-0.686-0.046-5.795-0.674-5.853-1.272c-1.563-16.139-1.503-29.112-1.865-46.06C87.268,358.42,88.633,342.756,88.26,330.264z"
							/>
					</defs>
					<clipPath id="SVGID_00000144339840858673568390000000383749852127528854_">
						<use xlink:href="#SVGID_00000134240170456878105070000001612297847431154581_"  style="overflow:visible;"/>
					</clipPath>
					<path style="clip-path:url(#SVGID_00000144339840858673568390000000383749852127528854_);" d="M77.207,409.372
						c1.929-0.06,4.002,0.506,5.903,0.786c2.05,0.302,4.104,0.577,6.163,0.821c3.899,0.461,7.813,0.815,11.731,1.094
						c3.922,0.279,7.845,0.413,11.775,0.544c1.963,0.065,3.928,0.107,5.892,0.123c2.101,0.017,4.212,0.131,6.31,0.041
						c0.667-0.028,0.666,0.938,0,0.966c-2.108,0.09-4.199,0.331-6.31,0.413c-1.963,0.076-3.928,0.129-5.892,0.153
						c-3.993,0.049-7.999-0.106-11.985-0.321c-3.99-0.216-7.971-0.564-11.939-1.01c-1.91-0.215-3.816-0.453-5.719-0.713
						c-1.992-0.273-4.322-0.371-6.192-1.086C75.953,410.806,76.017,409.409,77.207,409.372z"/>
					<path style="clip-path:url(#SVGID_00000144339840858673568390000000383749852127528854_);" d="M73.344,405.694
						c2.087-0.278,4.429,0.352,6.507,0.596c2.095,0.246,4.194,0.461,6.295,0.66c4.204,0.397,8.415,0.713,12.635,0.915
						c8.575,0.41,17.165,0.292,25.746,0.328c0.544,0.002,0.509,0.705,0,0.766c-8.609,1.023-17.295,1.053-25.957,0.733
						c-4.287-0.158-8.574-0.409-12.844-0.797c-2.101-0.191-4.199-0.412-6.294-0.656c-2.02-0.236-4.443-0.234-6.298-1.053
						C72.492,406.901,72.605,405.792,73.344,405.694z"/>
					<path style="clip-path:url(#SVGID_00000144339840858673568390000000383749852127528854_);" d="M134.837,412.045
						c0.808-0.403,1.627-0.302,2.527-0.302c0.845,0,1.69-0.005,2.535-0.014c1.76-0.019,3.519-0.054,5.278-0.107
						c3.587-0.107,7.172-0.292,10.75-0.554c7.217-0.529,14.513-1.114,21.639-2.324c0.585-0.099,0.836,0.735,0.247,0.835
						c-7.139,1.212-14.233,2.447-21.465,3.1c-3.646,0.329-7.301,0.579-10.96,0.749c-1.829,0.085-3.659,0.147-5.489,0.188
						c-0.845,0.019-1.69,0.033-2.535,0.044c-0.889,0.011-1.725,0.109-2.527-0.294C134.303,413.099,134.301,412.313,134.837,412.045z
						"/>
					<path style="clip-path:url(#SVGID_00000144339840858673568390000000383749852127528854_);" d="M136.314,406.522
						c1.53-0.325,3.335,0.004,4.901,0.051c1.683,0.05,3.366,0.079,5.05,0.086c3.365,0.013,6.733-0.052,10.095-0.2
						c3.36-0.148,6.714-0.396,10.063-0.673c1.603-0.132,3.2-0.308,4.801-0.454c1.834-0.167,3.673-0.225,5.49-0.515
						c0.585-0.093,0.836,0.741,0.247,0.835c-1.724,0.275-3.405,0.702-5.121,1.018c-1.643,0.303-3.314,0.507-4.973,0.721
						c-3.35,0.432-6.714,0.732-10.088,0.948c-3.361,0.215-6.726,0.341-10.094,0.369c-1.683,0.014-3.367,0.006-5.05-0.024
						c-0.912-0.016-1.823-0.039-2.734-0.068c-0.855-0.027-1.772,0.027-2.588-0.231C135.401,408.098,135.256,406.746,136.314,406.522
						z"/>
				</g>
				<path style="fill:#161111;" d="M110.442,446.033c-0.006,0.036-0.012,0.072-0.018,0.109c-0.048,0.285-0.123,0.601-0.379,0.765
					c-0.18,0.115-0.41,0.127-0.628,0.136c-8.522,0.345-16.92,0.668-25.447,0.892c-1.929,0.051-10.067,0.066-10.602-2.505
					c-0.126-0.607,0.22-1.231,0.719-1.638c0.498-0.407,1.13-0.639,1.75-0.86c3.847-1.37,8.219-2.184,11.886-3.891
					c1.357-0.632,2.648-1.529,4.018-2.197c0.733-0.358,3.744-2.532,4.417-2.394c4.198,0.867,8.979,1.507,13.253,0.842
					C110.673,438.725,111.03,442.445,110.442,446.033z"/>
				<path style="fill:none;stroke:#131834;stroke-width:0.5;stroke-miterlimit:10;" d="M121.779,313.845
					c0.192-8.696,0.445-17.539,1.517-26.93"/>
				<path style="fill:#161111;" d="M122.553,305.706c0.256,0.78,0.589,1.536,0.977,2.247c0.441,0.809,0.978,1.599,1.127,2.496
					c0.183,1.105-0.247,2.21-0.345,3.324c-0.089,1.005,0.094,2.012,0.236,3.012c0.1,0.707,0.686,8.632,0.383,8.653
					c-0.664,0.048-1.015-3.028-1.243-3.635c-0.418-1.112-0.521-2.446-0.889-3.573c-0.273-0.9-0.737-3.485-1.019-4.383
					c0.291-3.626,0.505-7.577,0.219-11.171C122.028,303.692,122.228,304.717,122.553,305.706z"/>
			</g>
			<path d="M138.569,179.957c-0.285-0.786-0.871-1.431-1.436-2.047c-1.567-1.707-4.288-3.442-6.688-3.236
				c-0.887,0.076-1.729,0.403-2.576,0.679c-1.137,0.371-2.303,0.655-3.483,0.848c-1.433,0.235-2.952,0.36-4.154,1.174
				c-2.33,1.579-2.474,4.948-4.056,7.276c-1.617,2.379-4.736,3.648-5.729,6.348c-0.409,1.113-0.398,2.352-0.855,3.445
				c-0.417,0.999-1.192,1.802-1.733,2.74c-1.353,2.348-1.014,5.55,0.8,7.564c1.584,1.757,4.047,2.524,6.412,2.52
				c2.366-0.004,4.673-0.692,6.915-1.448c0.421-0.142,0.851-0.292,1.193-0.575c0.76-0.629,0.893-1.72,1.29-2.624
				c0.522-1.187,1.532-2.082,2.248-3.163c0.862-1.301,1.305-2.938,2.411-4.071c1.067-1.093,2.968-1.291,4.285-2.109
				c1.679-1.043,3.677-1.929,4.776-3.564C139.956,187.083,139.725,183.142,138.569,179.957z"/>
			<path style="fill:#FFFFFF;stroke:#222221;stroke-width:0.5;stroke-miterlimit:10;" d="M156.839,237.489
				c-7.559-2.323-16.195-7.872-16.976-16.592c-0.378-4.223,3.441-8.253,7.656-8.381c1.826-0.056,3.546,0.796,5.145,1.682
				c3.683,2.04,7.301,4.434,11.433,5.47c3.783,0.949,7.534,1.618,11.459,1.862c8.418,0.524,16.888-0.421,25.095-2.299
				c1.945-0.445,3.909-0.944,5.903-0.866c1.993,0.078,4.065,0.826,5.25,2.43c1.265,1.713,1.288,4.099,0.59,6.111
				c-0.624,1.799-0.615,2.344-2.296,3.326c-12.393,7.24-26.932,11.418-41.276,9.764C164.817,239.536,160.812,238.71,156.839,237.489
				z"/>
			<path style="fill:#522E97;" d="M130.836,204.22c-0.035,0.117-0.042,0.242-0.031,0.364c0.077-0.021,0.156-0.036,0.235-0.051
				L130.836,204.22z"/>
			<g>
				<polygon style="fill:#5F76E8;stroke:#000000;stroke-width:0.5;stroke-miterlimit:10;" points="155.541,107.873 143.988,90.394 
					130.887,91.801 117.217,100.837 110.789,112.338 122.342,129.817 				"/>
				<polygon style="fill:#D89CC7;stroke:#000000;stroke-width:0.5;stroke-miterlimit:10;" points="120.255,126.659 126.683,115.158 
					140.353,106.122 153.454,104.715 236.378,230.171 203.18,252.115 				"/>
				
					<line style="fill:#D89CC7;stroke:#000000;stroke-width:0.5;stroke-miterlimit:10;" x1="227.098" y1="237.358" x2="131.184" y2="92.25"/>
				
					<line style="fill:none;stroke:#000000;stroke-width:0.5;stroke-miterlimit:10;" x1="213.428" y1="246.394" x2="117.514" y2="101.286"/>
				<path style="fill:#FFFFFF;stroke:#000000;stroke-width:0.5;stroke-miterlimit:10;" d="M247.58,284.618
					c0.006-1.407-11.363-54.691-11.363-54.691s-35.902,21.392-33.199,21.944L247.58,284.618z"/>
				<path d="M234.02,274.653l13.56,9.965c0.002-0.482-1.331-7.051-3.084-15.479C240.528,270.048,236.855,271.764,234.02,274.653z"/>
				<path style="fill:none;stroke:#000000;stroke-width:0.5;stroke-miterlimit:10;" d="M240.487,265.447
					c-1.837-4.825-2.971-9.917-3.355-15.066"/>
				<path style="fill:none;stroke:#000000;stroke-width:0.5;stroke-miterlimit:10;" d="M235.632,245.288
					c-0.355-1.949-0.709-3.898-1.064-5.847"/>
				
					<line style="fill:none;stroke:#000000;stroke-width:0.5;stroke-miterlimit:10;" x1="124.685" y1="127.656" x2="139.788" y2="150.505"/>
				
					<line style="fill:none;stroke:#000000;stroke-width:0.5;stroke-miterlimit:10;" x1="143.006" y1="155.374" x2="148.436" y2="163.59"/>
			</g>
			<path style="fill:#9AD6C1;stroke:#000000;stroke-width:0.5;stroke-miterlimit:10;" d="M95.643,254.828
				c2.354,0.8,4.69,1.553,7.1,2.185c5.276,1.383,10.587,2.305,15.946,3.281c3.731,0.68,7.434,1.504,11.175,2.135
				c5.942,1.003,12.707,1.858,18.559,0.077c-0.454-9.232-1.087-17.501-1.54-26.733c0.288,0.321,4.461,1.964,6.098,2.691
				c0.356,0.158,0.766-0.028,0.88-0.4c1.238-4.022,7.017-23.119,5.423-23.956c-0.839-0.44-1.65-0.943-2.463-1.426
				c-5.848-3.472-12.291-6.016-18.972-7.519c-6.104-1.373-13.226-3-19.482-2.748c-11.87,0.479-13.916,10.339-15.913,19.811
				c-0.718,3.405-1.42,6.812-2.114,10.222c-0.981,4.821-1.944,9.645-2.907,14.469C97.32,247.488,96.534,252.562,95.643,254.828z"/>
			<path style="fill:#FFFFFF;stroke:#222221;stroke-width:0.5;stroke-miterlimit:10;" d="M132.254,201.479
				c0.019-0.368,0.048-0.732,0.09-1.089c0.065-0.549,0.16-1.129,0.534-1.547c0.398-0.445,1.029-0.619,1.582-0.877
				c1.909-0.892,2.612-2.859,3.164-4.687c0.618-2.047,0.786-4.253,0.541-6.382c-0.269-2.336-0.083-5.929-1.87-7.634
				c-1.488-1.42-4.641-0.968-6.69-0.441c-1.186,0.305-2.232,0.967-3.116,1.756c-1.031,0.92-2.531,2.437-2.913,3.763
				c-0.275,0.953-0.532,1.911-0.769,2.874c-0.609,2.477-0.165,5.094-0.451,7.63c-0.252,2.239-0.822,4.71-1.578,6.849
				c-0.149,0.422-0.487,0.774-0.902,0.94c0.638,1.297,1.276,2.594,1.914,3.892c0.934,1.899,2.227,4.283,4.197,5.265
				c1.976,0.985,3.916,0.016,4.956-1.665C132.51,207.59,132.101,204.392,132.254,201.479z"/>
			<path d="M137.624,175.423c-0.584-0.118-1.19-0.157-1.786-0.175c-2.122-0.065-4.248,0.1-6.335,0.485
				c-1.714,0.316-3.657,0.255-5.196,1.165c-0.697,0.412-1.57,1.115-1.942,1.849c-0.384,0.759-0.742,1.468-1.31,2.128
				c-1.065,1.237-2.156,2.242-2.088,4.057c0.033,0.876,0.368,1.646,0.919,2.349c0.633,0.806,1.707,1.768,2.733,1.994
				c0.724,0.159,0.863-0.3,1.262-0.798c0.414-0.516,0.974-0.769,1.628-0.82c0.609-0.047,1.311-0.073,1.687-0.554
				c0.203-0.259,0.262-0.601,0.302-0.928c0.229-1.861,1.118-2.906,3.203-2.89c1.033,0.008,2.047,0.291,3.079,0.341
				c0.839,0.041,1.677-0.073,2.508-0.196c1.023-0.152,2.076-0.33,2.948-0.885c1.119-0.712,1.819-2.037,1.779-3.363
				c-0.04-1.326-0.816-2.605-1.973-3.255C138.601,175.68,138.121,175.523,137.624,175.423z"/>
			<path style="fill:#FFFFFF;stroke:#222221;stroke-width:0.5;stroke-miterlimit:10;" d="M127.056,188.634
				c-0.01-0.697-0.124-1.402-0.43-2.016c-0.306-0.614-0.82-1.13-1.456-1.327c-0.516-0.16-1.077-0.103-1.598,0.055
				c-2.015,0.61-3.142,2.753-2.562,4.843c0.215,0.776,0.907,1.435,1.62,1.708c0.562,0.215,1.17,0.268,1.77,0.319"/>
			<path style="fill:#FFFFFF;stroke:#222221;stroke-width:0.5;stroke-miterlimit:10;" d="M136.28,191.34l-5.605,0.684
				C130.985,193.242,134.826,195.906,136.28,191.34z"/>
			<path d="M133.624,198.031c-1.132,0.072-2.239-0.082-3.338-0.321c0.336,0.563,0.572,1.163,0.91,1.713
				c0.38,0.621,0.879,1.134,1.076,1.833c0.056-0.46,0.109-0.919,0.21-1.373c0.086-0.386,0.201-0.776,0.445-1.092
				c0.341-0.441,0.894-0.686,1.444-0.852c0.018-0.005,0.038-0.012,0.056-0.018C134.163,197.969,133.897,198.013,133.624,198.031z"/>
			<path style="fill:#FFFFFF;stroke:#222221;stroke-width:0.5;stroke-miterlimit:10;" d="M105.571,219.84
				c0.508-2.619,1.897-5.044,4.147-6.627c5.603-3.942,9.318-1.393,14.2,1.706c2.444,1.551,4.992,3.143,7.879,3.57
				c3.341,0.494,6.734-0.667,9.467-2.5c3.944-2.645,7.077-6.579,10.164-10.072c3.196-3.617,6.392-7.234,9.589-10.851
				c1.983-2.244,3.646-4.42,6.057-6.232c1.972-1.482,4.359-2.879,6.8-3.392c1.743-0.367,4.503-0.513,5.628,1.204
				c1.11,1.694,0.218,4.335-0.91,5.777c-1.163,1.486-2.806,2.505-4.391,3.529c-1.598,1.032-3.368,2.226-4.419,3.854
				c-1.281,1.982-2.037,4.548-2.971,6.714c-3.807,8.834-8.278,17.182-15.44,23.749c-3.02,2.769-6.42,5.228-10.3,6.548
				c-7.509,2.554-15.753,0.564-23.289-1.911c-3.582-1.176-7.291-2.568-9.772-5.406C105.717,226.876,104.919,223.199,105.571,219.84z
				"/>
			<path style="fill:#9AD6C1;stroke:#000000;stroke-width:0.5;stroke-miterlimit:10;" d="M116.839,202.496
				c-12.666,0.259-22.133,7.644-21.478,18.484c0.405,6.704,3.962,12.721,9.159,17.148c0.469,0.4,11.663-11.358,12.678-12.507
				c0.663-0.751,9.868-11.781,9.868-11.781s-1.919-1.043-2.861-1.672c-2.418-1.613-4.054-3.785-6.048-5.858"/>
			<path style="fill:none;stroke:#222221;stroke-width:0.5;stroke-miterlimit:10;" d="M124.146,186.929
				c0.518,0.172,1.07,0.368,1.386,0.795c0.381,0.516,0.302,1.203,0.207,1.819"/>
			<path style="fill:none;stroke:#222221;stroke-width:0.5;stroke-miterlimit:10;" d="M137.057,235.994
				c2.455-0.453,4.844-1.265,7.066-2.403"/>
			<path style="fill:none;stroke:#222221;stroke-width:0.5;stroke-miterlimit:10;" d="M145.18,232.724
				c1.124-0.525,2.18-1.197,3.13-1.994"/>
			<path style="fill:none;stroke:#222221;stroke-width:0.5;stroke-miterlimit:10;" d="M164.099,236.98
				c2.612,0.42,6.448,1.089,9.09,1.237"/>
			<path style="fill:none;stroke:#222221;stroke-width:0.5;stroke-miterlimit:10;" d="M166.553,235.995
				c0.873,0.182,1.764,0.28,2.656,0.291"/>
			<path style="fill:none;stroke:#222221;stroke-width:0.5;stroke-miterlimit:10;" d="M110.256,266.014
				c-4.072,3.148-9.24,4.849-14.386,4.735"/>
			<path style="fill:none;stroke:#222221;stroke-width:0.5;stroke-miterlimit:10;" d="M139.701,267.621
				c2.181,3.587,6.031,6.109,10.191,6.675"/>
			<path style="fill:none;stroke:#222221;stroke-width:0.5;stroke-miterlimit:10;" d="M177.938,185.498
				c-2.648,0.759-5.016,2.253-7.329,3.749"/>
			<path style="fill:none;stroke:#222221;stroke-width:0.5;stroke-miterlimit:10;" d="M171.94,190.821
				c2.558-1.205,5.034-2.585,7.404-4.128"/>
			<path style="fill:none;stroke:#222221;stroke-width:0.5;stroke-miterlimit:10;" d="M180.007,188.653
				c-1.931,1.949-4.199,3.564-6.673,4.75"/>
			<path style="fill:#222221;" d="M116.285,259.657c-1.935-0.34-3.896-0.516-5.815-0.948c-1.796-0.404-3.491-1.061-5.337-1.216
				c-0.956-0.08-1.899-0.208-2.671-0.684c-0.724,0.789-1.459,1.571-2.167,2.373c-0.644,0.729-0.558,1.644,0.211,2.318
				c0.586,0.513,1.429,0.672,2.193,0.527c0.765-0.146,1.455-0.568,2.031-1.093c0.518-0.473,1.063-1.076,1.763-1.028
				c0.869,0.06,1.309,1.053,1.991,1.596c0.523,0.417,1.247,0.569,1.893,0.397c0.63-0.167,1.164-0.613,1.804-0.737
				c1.655-0.321,3.031,1.579,4.716,1.54c0.769-0.018,1.481-0.455,1.999-1.024c0.349-0.384,0.613-0.832,0.86-1.289
				C118.599,260.146,117.452,259.862,116.285,259.657z"/>
		</g>
		
			<line style="fill:none;stroke:#222221;stroke-width:0.5;stroke-miterlimit:10;" x1="328.178" y1="133.507" x2="361.339" y2="96.272"/>
		
			<line style="fill:none;stroke:#222221;stroke-width:0.5;stroke-miterlimit:10;" x1="179.968" y1="133.507" x2="212.023" y2="85.6"/>
		
			<line style="fill:none;stroke:#222221;stroke-width:0.5;stroke-miterlimit:10;" x1="291.125" y1="208.525" x2="291.125" y2="164.981"/>
		
			<line style="fill:none;stroke:#222221;stroke-width:0.5;stroke-miterlimit:10;" x1="247.633" y1="287.137" x2="238.222" y2="364.351"/>
		<g>
			
				<rect x="180.949" y="316.54" style="fill:#D89CC7;stroke:#000000;stroke-width:0.5;stroke-miterlimit:10;" width="74.379" height="68.06"/>
			
				<rect x="174.194" y="323.657" style="fill:#FFFFFF;stroke:#222221;stroke-width:0.5;stroke-miterlimit:10;" width="74.379" height="68.06"/>
			<rect x="182.749" y="332.616" style="fill:#C4CDFF;" width="32.835" height="12.233"/>
			<g>
				
					<line style="fill:none;stroke:#222221;stroke-width:0.5;stroke-miterlimit:10;" x1="222.551" y1="342.785" x2="240.461" y2="342.785"/>
				
					<line style="fill:none;stroke:#222221;stroke-width:0.5;stroke-miterlimit:10;" x1="222.551" y1="338.322" x2="240.461" y2="338.322"/>
				
					<line style="fill:none;stroke:#222221;stroke-width:0.5;stroke-miterlimit:10;" x1="222.551" y1="333.858" x2="240.461" y2="333.858"/>
				
					<line style="fill:none;stroke:#222221;stroke-width:0.5;stroke-miterlimit:10;" x1="183.447" y1="348.428" x2="240.461" y2="348.428"/>
				
					<line style="fill:none;stroke:#222221;stroke-width:0.5;stroke-miterlimit:10;" x1="183.447" y1="354.07" x2="240.461" y2="354.07"/>
				
					<line style="fill:none;stroke:#222221;stroke-width:0.5;stroke-miterlimit:10;" x1="183.447" y1="359.712" x2="240.461" y2="359.712"/>
				
					<line style="fill:none;stroke:#222221;stroke-width:0.5;stroke-miterlimit:10;" x1="183.447" y1="365.355" x2="240.461" y2="365.355"/>
				
					<line style="fill:none;stroke:#222221;stroke-width:0.5;stroke-miterlimit:10;" x1="183.447" y1="370.997" x2="240.461" y2="370.997"/>
				
					<line style="fill:none;stroke:#222221;stroke-width:0.5;stroke-miterlimit:10;" x1="183.447" y1="376.64" x2="240.461" y2="376.64"/>
				
					<line style="fill:none;stroke:#222221;stroke-width:0.5;stroke-miterlimit:10;" x1="183.447" y1="382.282" x2="240.461" y2="382.282"/>
			</g>
		</g>
		<circle style="fill:#110809;" cx="328.178" cy="133.507" r="2.755"/>
		<circle style="fill:#110809;" cx="179.968" cy="133.507" r="2.755"/>
		<circle style="fill:#110809;" cx="291.125" cy="208.525" r="2.755"/>
		<g>
			<g>
				<rect x="203.412" y="53.396" width="56.741" height="35.712"/>
				
					<rect x="196.907" y="48.214" style="fill:#9AD6C1;stroke:#000000;stroke-width:0.5;stroke-miterlimit:10;" width="56.741" height="35.712"/>
				<path style="fill:none;stroke:#000000;stroke-width:0.5;stroke-miterlimit:10;" d="M253.649,48.214
					c0,0-26.301,16.167-28.371,17.856l-28.37-17.856"/>
			</g>
			<path style="fill:none;stroke:#000000;stroke-width:0.5;stroke-miterlimit:10;" d="M251.099,70.338
				c0.253,2.995,0.262,6.01,0.026,9.006"/>
			<path style="fill:none;stroke:#000000;stroke-width:0.5;stroke-miterlimit:10;" d="M251.006,68.559
				c0.041-1.106,0.083-2.212,0.124-3.318"/>
			<path style="fill:none;stroke:#000000;stroke-width:0.5;stroke-miterlimit:10;" d="M249.454,67.848c0,0.79,0,1.58,0,2.37"/>
			<path style="fill:none;stroke:#000000;stroke-width:0.5;stroke-miterlimit:10;" d="M226.226,63.226c0,0,3.994-2.522,5.333-3.437"
				/>
			<path style="fill:none;stroke:#000000;stroke-width:0.5;stroke-miterlimit:10;" d="M233.197,58.577
				c0.563-0.439,1.168-0.824,1.803-1.149"/>
		</g>
		<circle style="fill:#110809;" cx="247.828" cy="286.28" r="3.318"/>
		<g>
			
				<rect x="250.089" y="128.416" style="fill:#FFFFFF;stroke:#222221;stroke-width:0.5;stroke-miterlimit:10;" width="71.032" height="53.753"/>
			
				<line style="fill:#9AD6C1;stroke:#000000;stroke-width:0.5;stroke-miterlimit:10;" x1="257.612" y1="138.672" x2="311.82" y2="138.672"/>
			
				<line style="fill:#9AD6C1;stroke:#000000;stroke-width:0.5;stroke-miterlimit:10;" x1="257.612" y1="145.637" x2="311.82" y2="145.637"/>
			
				<line style="fill:#9AD6C1;stroke:#000000;stroke-width:0.5;stroke-miterlimit:10;" x1="257.612" y1="152.602" x2="311.82" y2="152.602"/>
			
				<line style="fill:#9AD6C1;stroke:#000000;stroke-width:0.5;stroke-miterlimit:10;" x1="257.612" y1="159.567" x2="311.82" y2="159.567"/>
		</g>
		<g>
			<path style="fill:#D47172;stroke:#000000;stroke-width:0.5;stroke-miterlimit:10;" d="M46.963,136.139v-6.649
				c11.086,0,20.073-8.987,20.073-20.073h7.57c0,11.086,8.987,20.073,20.073,20.073v6.649c-11.086,0-20.073,8.987-20.073,20.073
				h-7.57C67.036,145.126,58.049,136.139,46.963,136.139z"/>
			<path style="fill:#9AD6C1;stroke:#000000;stroke-width:0.5;stroke-miterlimit:10;" d="M51.122,134.053v-2.477
				c10.106,0,18.299-8.193,18.299-18.299h2.799c0,10.107,8.193,18.299,18.299,18.299v2.478c-10.106,0-18.299,8.193-18.299,18.299
				h-2.799C69.422,142.246,61.229,134.053,51.122,134.053z"/>
			<path d="M59.29,132.814L59.29,132.814c6.368,0,11.531-5.162,11.531-11.531l0,0c0,6.368,5.162,11.531,11.531,11.531l0,0
				c-6.368,0-11.531,5.162-11.531,11.531l0,0C70.821,137.977,65.659,132.814,59.29,132.814z"/>
		</g>
		<g>
			<g>
				
					<rect x="350.884" y="55.814" style="fill:#FFFFFF;stroke:#222221;stroke-width:0.5;stroke-miterlimit:10;" width="20.91" height="22.702"/>
				
					<rect x="382.351" y="55.814" style="fill:#D89CC7;stroke:#000000;stroke-width:0.5;stroke-miterlimit:10;" width="20.91" height="22.702"/>
				
					<rect x="413.818" y="55.814" style="fill:#FFFFFF;stroke:#222221;stroke-width:0.5;stroke-miterlimit:10;" width="20.91" height="22.702"/>
				
					<rect x="350.884" y="84.921" style="fill:#FFFFFF;stroke:#222221;stroke-width:0.5;stroke-miterlimit:10;" width="20.91" height="22.702"/>
				
					<rect x="382.351" y="84.921" style="fill:#FFFFFF;stroke:#222221;stroke-width:0.5;stroke-miterlimit:10;" width="20.91" height="22.702"/>
				
					<rect x="413.818" y="84.921" style="fill:#D89CC7;stroke:#000000;stroke-width:0.5;stroke-miterlimit:10;" width="20.91" height="22.702"/>
			</g>
			<polyline style="fill:none;stroke:#000000;stroke-width:4;stroke-miterlimit:10;" points="354.25,64.768 362.62,71.385 
				375.077,49.975 			"/>
			<polyline style="fill:none;stroke:#000000;stroke-width:4;stroke-miterlimit:10;" points="414.199,64.768 422.569,71.385 
				435.026,49.975 			"/>
			<polyline style="fill:none;stroke:#000000;stroke-width:4;stroke-miterlimit:10;" points="384.225,94.353 392.594,100.971 
				405.051,79.561 			"/>
			<polyline style="fill:none;stroke:#000000;stroke-width:4;stroke-miterlimit:10;" points="414.199,94.353 422.569,100.971 
				435.026,79.561 			"/>
		</g>
		<path style="fill:none;stroke:#000000;stroke-width:0.5;stroke-miterlimit:10;" d="M274.675,372.31
			c1.181-2.244,3.986-3.455,5.827-5.113c2.578-2.322,4.54-5.096,6.695-7.786c2.213-2.764,5.655-5.291,9.035-4.236
			c2.028,0.633,3.561,2.609,3.669,4.731c0.109,2.138-1.086,4.121-2.431,5.786c-3.613,4.473-8.438,5.428-12.468,8.956
			c-1.065,0.932-1.862,2.166-3.036,2.957c-3.004,2.022-7.86,1.06-7.827-3.107C274.146,373.66,274.343,372.941,274.675,372.31z"/>
		<g>
			<g>
				<path style="fill:#9AD6C1;stroke:#000000;stroke-width:0.5;stroke-miterlimit:10;" d="M278.482,446.672h3.305
					c-0.341-3.384-1.298-6.675-2.25-9.943c-2.291-7.861-3.034-16.67-7.159-23.909c-1.133-1.989-2.419-3.895-3.901-5.691
					c-2.862-3.468-6.749-5.951-11.046-7.309c-4.278-1.352-10.094-0.323-14.252,1.216c-3.987,1.475-7.634,4.475-8.755,8.532
					c-0.32,1.159-0.426,2.39-0.174,3.564c0.623,2.9,3.347,4.991,6.234,5.8c2.887,0.809,5.951,0.581,8.947,0.403
					c3.675-0.218,7.625-0.383,10.757,1.811c5.148,3.605,8.567,8.951,11.741,14.219c1.612,2.677,3.44,5.301,4.944,8.032
					C277.319,444.205,277.762,445.901,278.482,446.672z"/>
				<path style="fill:#9AD6C1;stroke:#000000;stroke-width:0.5;stroke-miterlimit:10;" d="M318.246,409.011
					c-0.793-0.83-1.775-1.52-2.894-1.776c-2.246-0.514-4.47,0.771-6.417,2.002c-6.816,4.31-13.522,7.506-17.96,14.574
					c-3.468,5.522-6.096,11.746-7.616,18.066c-0.264,1.097-0.429,2.186-0.586,3.293c-0.088,0.618-0.251,1.165-0.328,1.733
					c0,0,1.799,0,1.799,0c-0.027,0,0.936-2.421,1.057-2.642c0.506-0.924,1.137-1.747,1.733-2.611
					c1.142-1.655,2.221-3.398,3.51-4.966c1.616-1.966,3.684-3.558,5.997-4.618c2.522-1.155,5.281-1.669,8.001-2.218
					c1.392-0.281,2.781-0.574,4.17-0.867c2.516-0.53,4.943-1.132,6.962-2.796c1.87-1.541,3.431-3.485,4.349-5.739
					C321.562,416.668,321.065,411.959,318.246,409.011z"/>
				<path style="fill:#9AD6C1;stroke:#000000;stroke-width:0.5;stroke-miterlimit:10;" d="M306.605,382.641
					c-2.875-2.547-7.331-2.233-10.914-0.848c-6.782,2.621-11.772,8.215-15.982,13.932c-4.764,6.47-6.203,13.141-5.075,21.18
					c0.549,3.914,1.373,7.782,2.233,11.638c0.79,3.544,1.288,7.23,2.206,10.702c0.473,1.786,0.832,3.603,1.072,5.435
					c0.169,1.289,0.156,1.92,0.786,2.222h1.455c-0.036-3.199,1.587-9.352,1.857-11.112c0.557-3.636,1.191-7.269,2.116-10.827
					c1.314-5.049,3.197-10.002,5.971-14.438c2.494-3.988,7.379-6.729,10.725-10.174c2.356-2.425,4.605-5.108,5.603-8.339
					C309.656,388.783,309.135,384.883,306.605,382.641z"/>
				<path style="fill:none;stroke:#222221;stroke-width:0.5;stroke-miterlimit:10;" d="M279.71,446.556
					c-1.086-4.566-6.607-22.733-8.36-26.574c-3.615-7.922-11.483-9.893-19.902-10.081"/>
				<path style="fill:none;stroke:#222221;stroke-width:0.5;stroke-miterlimit:10;" d="M283.402,446.787
					c2.307-8.134,6.285-14.352,11.513-18.037c5.382-3.793,11.461-5.797,16.43-10.346"/>
				<path style="fill:none;stroke:#222221;stroke-width:0.5;stroke-miterlimit:10;" d="M293.408,393.587
					c-14.701,12.759-12.039,35.444-12.06,53.315"/>
				<path style="fill:none;stroke:#222221;stroke-width:0.5;stroke-miterlimit:10;" d="M237.644,414.744
					c1.336,1.221,2.993,2.086,4.758,2.484"/>
				<path style="fill:none;stroke:#222221;stroke-width:0.5;stroke-miterlimit:10;" d="M244.559,417.515
					c1.282-0.102,2.564-0.204,3.846-0.307"/>
				<path style="fill:none;stroke:#222221;stroke-width:0.5;stroke-miterlimit:10;" d="M307.099,386.922
					c0.287,1.708,0.115,3.49-0.493,5.111c-0.303,0.809-0.711,1.573-1.131,2.328c-1.495,2.69-3.649,4.413-5.853,6.537"/>
				<path style="fill:none;stroke:#222221;stroke-width:0.5;stroke-miterlimit:10;" d="M297.429,402.553
					c-0.85,0.892-1.7,1.785-2.55,2.677"/>
				<path style="fill:none;stroke:#222221;stroke-width:0.5;stroke-miterlimit:10;" d="M303.934,414.742
					c-1.913,0.732-3.727,1.723-5.377,2.937"/>
				<path style="fill:none;stroke:#222221;stroke-width:0.5;stroke-miterlimit:10;" d="M297.631,420.444
					c-0.667,0.564-1.333,1.128-2,1.692"/>
			</g>
		</g>
		<g>
			<path style="fill:#FFFFFF;stroke:#222221;stroke-width:0.5;stroke-miterlimit:10;" d="M344.707,437.336
				c-0.135,0.295-2.423,2.9-2.697,3.125c-0.307,0.252-0.716,0.35-1.1,0.434c-3.325,0.727-6.847-0.61-10.174-0.199
				c2.717-10.225,5.288-33.875,8.135-44.035c0.752-2.683,0.349,6.866,2.006,4.486c1.657-2.38,4.138-4.414,6.929-5.025
				c2.791-0.611,5.811,0.491,6.726,2.908c0.618,1.631,0.251,3.558-0.181,5.377C351.714,415.492,349.566,426.694,344.707,437.336z"/>
			<path style="fill:#161111;" d="M309.233,446.886h36.419c0.863-1.184,0.713-3.309,0.373-4.639
				c-0.515-2.018-0.613-4.173-0.625-6.205c-4.129,0.749-8.051,0.155-12.162-0.376c-0.506-0.065-1.02-0.131-1.526-0.062
				c-0.676,0.092-1.289,0.416-1.905,0.698c-3.37,1.541-7.171,1.916-10.798,2.772c-3.627,0.856-7.363,2.399-9.319,5.441
				c-0.372,0.579-0.678,1.244-0.585,1.917C309.128,446.597,309.179,446.743,309.233,446.886z"/>
			<path style="fill:#FFFFFF;stroke:#222221;stroke-width:0.5;stroke-miterlimit:10;" d="M404.041,438.431
				c0.048,0.313,0.104,0.642,0.313,0.877c0.235,0.263,0.617,0.359,0.979,0.441c3.132,0.707,7.417,0.401,10.644,0.771
				c0.964,0.111-1.165-36.011-1.657-39.17c-0.234-1.506-0.504-3.023-1.076-4.442c-0.248-0.618-0.566-1.232-1.061-1.667
				c-0.514-0.453-1.181-0.676-1.84-0.756c-1.79-0.219-3.561,0.557-4.873,1.775c-1.312,1.218-2.215,2.843-2.939,4.52
				c-2.508,5.81-3.007,12.596-1.478,18.924C402.543,425.864,403.069,432.119,404.041,438.431z"/>
			<path style="fill:#5F76E8;stroke:#000000;stroke-width:0.5;stroke-miterlimit:10;" d="M419.446,335.66
				c-0.387-7.921-0.847-15.837-1.38-23.75c-1.075-15.963-1.352-37.339-18.409-45.054c-5.109-2.311-10.795-2.978-16.389-3.368
				c-2.092-0.146-4.211-0.256-6.274,0.12c-12.623,2.298-14.58,16.544-18.336,26.444c-5.534,14.583-9.185,29.811-12.251,45.08
				c-2.331,11.608-4.263,23.294-6.66,34.889c-2.371,11.47-5.233,22.906-8.018,34.327c-0.448,1.837-1.932,6.922-1.864,8.812
				c0.342,9.489,10.712,10.9,18.024,11.331c9.155,0.541,9.769-5.682,13.088-14.743c6.543-17.862,7.636-38.887,12.822-56.5
				c4.328-14.699,7.064-29.772,10.998-44.752c0.482-1.836,0.925-4.263,2.34-5.534c3.23,28.882,1.296,58.007,3.973,86.886
				c1.037,11.186,1.913,22.194,4.659,33.168c1.109,4.432,12.385,2.236,15.714,1.868c4.538-0.502,9.294-2.429,9.37-7.702
				C421.243,390.002,420.773,362.81,419.446,335.66z"/>
			<path style="fill:#161111;" d="M402.893,447.129c0.061,0.297,0.15,0.626,0.414,0.796c0.018,0.012,0.041,0.013,0.061,0.022h35.054
				c0.876-0.376,1.483-0.88,1.59-1.56c0.099-0.631-0.276-1.281-0.794-1.705c-0.518-0.424-1.162-0.665-1.793-0.895
				c-3.918-1.426-8.337-2.273-12.09-4.05c-1.39-0.658-2.723-1.591-4.126-2.287c-0.751-0.372-3.867-2.636-4.535-2.491
				c-4.17,0.902-8.935,1.568-13.25,0.877c-1.112,3.574-1.303,7.445-0.553,11.18C402.878,447.054,402.885,447.091,402.893,447.129z"
				/>
			<path style="fill:#161111;" d="M364.299,235.124c0.096-0.796,0.255-1.566,0.461-2.339c0.142-0.532,0.896-0.307,0.792,0.226
				c-0.287,1.466-0.512,2.97-0.646,4.459c-0.041,0.453-0.681,0.47-0.693,0C364.192,236.685,364.205,235.904,364.299,235.124z"/>
			<path style="fill:#9AD6C1;stroke:#000000;stroke-width:0.5;stroke-miterlimit:10;" d="M441.71,240.392
				c-0.067-0.673-0.227-1.42-0.492-2.249c-1.061-3.319-2.636-6.803-4.247-9.912c-0.533-1.029-1.118-2.026-1.743-3
				c-1.649-2.566-3.577-4.958-5.564-7.279c-2.309-2.698-4.717-5.326-7.412-7.639c-2.642-2.269-5.545-4.223-8.576-5.938
				c-2.636-1.493-5.511-2.569-8.376-3.49c-4.296-1.38-10.243-1.68-12.283-1.758c-2.419-0.092-4.84-0.15-7.26-0.106
				c-4.777,0.088-9.61,0.547-14.188,2.034c-6.631,2.153-10.415,6.74-14.436,12.16c-4.683,6.313-9.797,12.205-14.243,18.731
				c-1.235,1.813-2.463,3.694-3.441,5.672c-1.006,2.033-1.748,4.169-1.967,6.438c-0.392,4.082,2.026,10.835,6.896,10.774
				c4.432-0.055,9.453-6.335,12.214-9.351c1.839-2.009,1.709-8.904,4.663-8.777c0.925,6.406-0.089,14.389-0.362,20.998
				c-0.285,6.766-0.421,16.042-0.362,22.808c17.734,0.662,37.371,0.598,55.115,0.382c-0.507-14.659-2.377-29.155-3.682-43.706
				c2.12,1.358,4.265,2.678,6.415,3.985c3.017,1.834,6.139,3.684,9.621,4.266C433.432,246.343,442.394,247.251,441.71,240.392z"/>
			<path style="fill:#FFFFFF;stroke:#222221;stroke-width:0.5;stroke-miterlimit:10;" d="M347.811,233.627
				c7.426-4.667,15.599-7.996,23.723-11.301c2.609-1.061,5.239-2.129,8.005-2.66c0.633-0.122,1.313-0.21,1.902,0.052
				c1.65,0.733,1.174,3.193,0.34,4.794c-3.922,7.524-9.769,13.849-15.731,19.886c-3.25,3.291-6.791,6.536-10.897,8.731
				c-3.413,1.824-11.094,4.249-14.248,0.619c-0.759-0.873-2.599-3.106-2.853-4.234C336.172,241.159,340.883,237.981,347.811,233.627
				z"/>
			
				<rect x="367.49" y="211.691" transform="matrix(-1 -1.224647e-16 1.224647e-16 -1 769.1737 446.1787)" style="fill:#110809;" width="34.194" height="22.797"/>
			<path style="fill:#FFFFFF;stroke:#222221;stroke-width:0.5;stroke-miterlimit:10;" d="M437.932,249.891
				c-8.571,6.266-23.423,0.972-31.25-3.748c-2.09-1.261-4.181-2.521-6.271-3.782c-2.345-1.414-4.645-2.918-7.178-3.982
				c-5.129-2.155-10.488-2.727-14.717-6.607c-1.496-1.372-2.879-3.371-2.235-5.296c0.534-1.594,2.336-2.476,4.017-2.475
				c1.681,0.002,3.273,0.695,4.81,1.376c1.174,0.52,2.349,1.039,3.522,1.561c0.477,0.212,2.576,1.645,2.491,0.253
				c-0.025-0.398-0.296-0.73-0.505-1.071c-0.283-0.462-1.052-2.186-0.208-2.477c0.456-0.157,1.733,1.259,2.029,1.547
				c1.442,1.408,2.358,3.417,4.117,4.485c1.331,0.808,2.956,0.897,4.498,1.111c2.523,0.35,4.879,1.017,7.402,1.312
				c3.035,0.355,6.071,0.694,9.109,1.016c6.408,0.68,13.205,0.663,19.358,2.692C443.919,238.115,441.77,247.085,437.932,249.891z"/>
			<path style="fill:#5F76E8;stroke:#000000;stroke-width:0.5;stroke-miterlimit:10;" d="M387.029,303.991
				c-0.15-4.243-0.299-8.487-0.448-12.73"/>
			<path style="fill:none;stroke:#000000;stroke-width:0.5;stroke-miterlimit:10;" d="M355.839,291.979
				c2.283,0.791,4.861,0.246,6.98-0.915c2.119-1.161,3.866-2.885,5.576-4.593"/>
			<path style="fill:none;stroke:#000000;stroke-width:0.5;stroke-miterlimit:10;" d="M407.876,287.228
				c0.888,1.738,2.607,2.942,4.451,3.578c1.845,0.637,3.823,0.765,5.774,0.807"/>
			<path style="fill:none;stroke:#000000;stroke-width:0.5;stroke-miterlimit:10;" d="M414.417,232.703
				c-2.655-4.197-5.184-8.473-7.582-12.822"/>
			<path style="fill:none;stroke:#000000;stroke-width:0.5;stroke-miterlimit:10;" d="M341.417,249.326
				c0.069,1.126,0.571,2.221,1.381,3.008"/>
			<path style="fill:none;stroke:#000000;stroke-width:0.5;stroke-miterlimit:10;" d="M435.901,232.089
				c-1.229-3.015-2.846-5.872-4.8-8.477"/>
			<path style="fill:none;stroke:#000000;stroke-width:0.5;stroke-miterlimit:10;" d="M426.964,218.296
				c0.669,0.528,1.246,1.174,1.695,1.899"/>
			<path style="fill:none;stroke:#000000;stroke-width:0.5;stroke-miterlimit:10;" d="M346.722,345.227
				c-0.492,5.377-1.492,10.707-2.984,15.896"/>
			<path style="fill:none;stroke:#000000;stroke-width:0.5;stroke-miterlimit:10;" d="M343.16,364.903
				c-0.378,2.018-0.757,4.035-1.135,6.053"/>
			<path style="fill:none;stroke:#000000;stroke-width:0.5;stroke-miterlimit:10;" d="M410.503,422.659
				c3.644-0.015,7.066-2.913,7.68-6.505"/>
			<path style="fill:none;stroke:#000000;stroke-width:0.5;stroke-miterlimit:10;" d="M411.318,258.212
				c0.097,3.217,0.193,6.433,0.29,9.65"/>
			<path style="fill:none;stroke:#000000;stroke-width:0.5;stroke-miterlimit:10;" d="M412.016,271.078
				c0.071,1.893,0.007,3.791-0.189,5.675"/>
			<path style="fill:none;stroke:#000000;stroke-width:0.5;stroke-miterlimit:10;" d="M436.304,248.501
				c2.024-1.215,3.263-3.629,3.07-5.982"/>
			<g id="XMLID_606_">
				<path id="XMLID_610_" style="fill:#161111;" d="M397.764,182.477c-0.978-0.825-2.236-1.222-3.367-1.822
					c-2.419-1.284-4.213-3.48-5.799-5.714c-0.961-1.353-1.988-2.833-3.57-3.337c-1.457-0.464-3.796-0.376-4.985,0.614
					c-0.902,0.751-1.638,1.778-1.902,2.934c-0.278,1.217,0.036,2.557,0.091,3.788c0.065,1.466,0.064,2.934-0.005,4.4
					c-0.083,1.767-0.263,3.539-0.112,5.302c0.151,1.763,0.664,3.55,1.807,4.901c1.006,1.188,2.483,1.974,4.034,2.106
					c2.131,0.181,4.158-0.815,6.16-1.565c1.03-0.386,2.084-0.71,3.098-1.138c0.955-0.403,1.717-0.954,2.714-1.295
					c2.022-0.692,4.285-1.346,4.353-3.854C400.332,185.918,399.186,183.677,397.764,182.477z"/>
				<g id="XMLID_607_">
					<path style="fill:#FFFFFF;stroke:#222221;stroke-width:0.5;stroke-miterlimit:10;" d="M394.12,194.779
						c-0.075-2.013,0.008-4.037-0.019-6.061c-0.015-1.077-0.029-2.153-0.044-3.23c0.384-1.36,0.882-2.81,0.956-4.092
						c0.106-1.84,0.094-3.929-1.269-5.346c-1.239-1.287-2.616-5.509-4.316-5.897c-1.022-0.234-3.174-0.272-4.173-0.539
						c-1.117-0.297-2.212,2.791-3.353,2.677c-0.203-0.02-0.407-0.038-0.611-0.052c-0.326-0.023-0.683-0.029-0.934,0.176
						c-0.164,0.133-0.257,0.338-0.336,0.538c-0.61,1.537-0.728,3.247-0.839,4.925c-0.26,3.94-1.052,11.503,3.448,13.47
						c0.03,0.013,0.062,0.02,0.092,0.032c-0.06-0.024-0.161,3.38-0.164,3.557c-0.032,1.775-0.238,4.171-2.079,5.028
						c1.86,1.934,4.725,2.659,7.397,2.415c2.572-0.235,5.333-1.239,7.508-2.626C393.991,199.06,394.167,196.051,394.12,194.779z"/>
					<path id="XMLID_611_" style="fill:#161111;" d="M381.463,168.419c1.148-0.193,2.312-0.336,3.402-0.741
						c1.081-0.402,2.089-1.06,3.236-1.187c0.913-0.101,1.828,0.149,2.69,0.465c1.402,0.514,2.763,1.231,3.78,2.325
						c2.36,2.539,2.49,6.647,5.025,9.011c1.141,1.064,1.758,1.944,2.42,3.35c0.707,1.501,1.451,2.997,1.893,4.603
						c0.552,2.006,0.585,4.266-0.478,6.055c-1.335,2.246-4.235,3.281-6.805,2.812c-0.877-0.16-1.746-0.484-2.413-1.076
						c-0.839-0.746-1.28-1.842-1.563-2.929c-0.314-1.205-0.469-2.452-0.46-3.698c0.008-1.119,0.205-2.151,0.679-3.164
						c0.555-1.186-0.251-1.297-0.855-2.285c-0.365-0.597-0.228-1.35-0.817-1.847c-0.534-0.451-0.785-0.604-1.08-1.213
						c-0.273-0.564-0.608-0.943-1.133-1.329c-1.54-1.134-3.585-1.238-5.497-1.262c-1.912-0.024-3.94-0.043-5.562-1.056
						c-0.846-0.528-1.553-1.36-1.703-2.345c-0.187-1.227,0.534-2.459,1.538-3.19c1.004-0.731,2.247-1.045,3.47-1.259
						C381.307,168.446,381.385,168.432,381.463,168.419z"/>
					<path id="XMLID_3_" style="fill:#FFFFFF;stroke:#222221;stroke-width:0.5;stroke-miterlimit:10;" d="M391.136,183.856
						c0.806,0.334,1.723,0.424,2.514,0.168c1.802-0.583,2.549-3.118,1.257-4.617c-0.629-0.729-1.639-1.148-2.59-1.089
						c-0.951,0.059-1.814,0.591-2.249,1.368"/>
					<path style="fill:#FFFFFF;stroke:#222221;stroke-width:0.5;stroke-miterlimit:10;" d="M394.011,179.92
						c-0.681-0.328-1.523-0.298-2.179,0.077c-0.656,0.376-1.109,1.086-1.171,1.839"/>
				</g>
			</g>
			<path style="fill:#C46345;" d="M381.472,186.334c0.495,0.986,1.431,1.679,2.518,1.711c1.137,0.034,2.091-0.666,2.54-1.698
				C384.854,186.484,383.155,186.374,381.472,186.334z"/>
			<path style="fill:#161111;" d="M387.856,191.28c0.146,0.022,0.283,0.07,0.395,0.165c0.794,0.673-1.292,1.583-1.72,1.681
				c-0.465,0.107-0.95,0.082-1.419,0.168c-0.505,0.093-1.784,0.847-2.248,0.68c-0.558-0.202-0.302-1.89-0.213-2.419
				c0.009-0.052,0.02-0.107,0.057-0.143c0.064-0.063,0.169-0.044,0.256-0.022c1.435,0.354,2.936,0.008,4.409-0.113
				C387.531,191.264,387.699,191.257,387.856,191.28z"/>
			<path style="fill:none;stroke:#000000;stroke-width:0.5;stroke-miterlimit:10;" d="M343.643,420.97
				c2.44,1.255,5.42,1.41,7.978,0.416"/>
			<path style="fill:none;stroke:#000000;stroke-width:0.5;stroke-miterlimit:10;" d="M354.146,419.444
				c0.832-0.866,1.501-1.888,1.962-2.997"/>
			<path style="fill:none;stroke:#000000;stroke-width:0.5;stroke-miterlimit:10;" d="M357.652,412.806
				c2.696-7.021,4.651-14.326,5.821-21.755"/>
			<path style="fill:none;stroke:#000000;stroke-width:0.5;stroke-miterlimit:10;" d="M358.408,403.12
				c-0.364,1.516-0.897,2.992-1.587,4.39"/>
			<path style="fill:none;stroke:#000000;stroke-width:0.5;stroke-miterlimit:10;" d="M418.551,414.181
				c0.052-2.743,0.104-5.486,0.156-8.228"/>
			<path style="fill:#161111;" d="M401.098,349.195c0.762-1.947,2.06-3.423,4.167-3.588c1.773-0.139,3.42,1.148,4.218,2.738
				c0.798,1.59,0.911,3.428,0.925,5.207c0.01,1.242-0.024,2.504-0.399,3.688c-0.942,2.967-5.661,6.847-8.581,3.709
				c-0.665-0.714-0.918-1.714-1.068-2.678C400.017,356.059,399.96,352.102,401.098,349.195z"/>
			<path style="fill:#161111;" d="M351.927,351.674c0.383-1.069,1.039-2.015,1.688-2.946c0.87-1.248,1.762-2.519,2.986-3.421
				c1.224-0.902,2.862-1.386,4.293-0.87c2.171,0.783,3.015,3.464,2.894,5.769c-0.213,4.052-3.062,9.443-7.384,10.437
				C351.612,361.744,350.68,355.16,351.927,351.674z"/>
		</g>
		<path style="fill:none;stroke:#000000;stroke-width:0.5;stroke-miterlimit:10;" d="M386.503,446.903
			c27.367,0.011,39.367,0.011,66.534,0"/>
		<path style="fill:none;stroke:#000000;stroke-width:0.5;stroke-miterlimit:10;" d="M61.581,446.903
			c106.29,0.011,204.29,0.011,309.917,0"/>
		
			<line style="fill:none;stroke:#000000;stroke-width:0.5;stroke-miterlimit:10;" x1="84.99" y1="451.786" x2="297.849" y2="451.786"/>
		<path style="fill:none;stroke:#000000;stroke-width:0.5;stroke-miterlimit:10;" d="M344.865,451.786
			c20.294,0.268,39.294,0.268,59.296,0"/>
		<path style="fill:none;stroke:#000000;stroke-width:0.5;stroke-miterlimit:10;" d="M309.111,451.786c6.418,0,12.835,0,19.253,0"/>
		<path d="M275.567,354.711c0,1.899-1.539,3.438-3.438,3.438c-1.899,0-3.438-1.539-3.438-3.438s1.539-3.438,3.438-3.438
			C274.028,351.273,275.567,352.812,275.567,354.711z"/>
		
			<line style="fill:none;stroke:#222221;stroke-width:0.5;stroke-miterlimit:10;" x1="256.925" y1="247.216" x2="292.589" y2="289.671"/>
		<g>
			
				<line style="fill:none;stroke:#222221;stroke-width:0.5;stroke-miterlimit:10;" x1="296.062" y1="285.699" x2="301.343" y2="291.141"/>
			
				<line style="fill:none;stroke:#222221;stroke-width:0.5;stroke-miterlimit:10;" x1="305.989" y1="289.31" x2="301.484" y2="281.568"/>
			
				<line style="fill:none;stroke:#222221;stroke-width:0.5;stroke-miterlimit:10;" x1="310.212" y1="285.791" x2="308.523" y2="277.767"/>
			
				<line style="fill:none;stroke:#222221;stroke-width:0.5;stroke-miterlimit:10;" x1="314.436" y1="277.063" x2="314.858" y2="285.228"/>
			
				<line style="fill:none;stroke:#222221;stroke-width:0.5;stroke-miterlimit:10;" x1="320.793" y1="277.181" x2="319.481" y2="285.251"/>
			
				<line style="fill:none;stroke:#222221;stroke-width:0.5;stroke-miterlimit:10;" x1="327.528" y1="278.893" x2="324.713" y2="287.058"/>
			
				<line style="fill:none;stroke:#222221;stroke-width:0.5;stroke-miterlimit:10;" x1="328.347" y1="289.453" x2="333.3" y2="282.975"/>
			
				<line style="fill:none;stroke:#222221;stroke-width:0.5;stroke-miterlimit:10;" x1="331.726" y1="292.645" x2="337.357" y2="286.826"/>
			<g>
				<g>
					<g>
						<path style="fill:#D89CC7;stroke:#000000;stroke-width:0.5;stroke-miterlimit:10;" d="M316.684,305.424
							c-10.692,0-19.36-10.259-19.36-10.259s8.668-10.259,19.36-10.259c10.692,0,19.359,10.259,19.359,10.259
							S327.376,305.424,316.684,305.424z"/>
						<path style="fill:#9AD6C1;stroke:#000000;stroke-width:0.5;stroke-miterlimit:10;" d="M316.616,305.45
							c-4.647,0-8.414-4.599-8.414-10.272c0-5.673,3.767-10.271,8.414-10.271c4.647,0,8.414,4.599,8.414,10.271
							C325.029,300.851,321.262,305.45,316.616,305.45z"/>
					</g>
				</g>
				<path d="M316.616,303.321c-3.349,0-6.065-3.646-6.065-8.143c0-4.497,2.715-8.142,6.065-8.142c3.349,0,6.065,3.645,6.065,8.142
					C322.68,299.676,319.965,303.321,316.616,303.321z"/>
			</g>
		</g>
		<circle style="fill:#110809;" cx="256.925" cy="247.216" r="3.46"/>
		<path style="fill:none;stroke:#222221;stroke-width:0.5;stroke-miterlimit:10;" d="M330.415,296.244
			c0.659-0.56,1.319-1.12,1.978-1.681"/>
		<g>
			<path d="M113.582,65.8c0-1.699,1.378-3.077,3.077-3.077c1.699,0,3.077,1.377,3.077,3.077"/>
			<path style="fill:none;stroke:#000000;stroke-width:0.5;stroke-miterlimit:10;" d="M127.462,77.431
				c1.538-1.827,3.58-3.146,5.394-4.7s3.483-3.506,3.836-5.869s-1.105-5.106-3.474-5.412c-1.373-0.178-2.731,0.465-3.831,1.306
				c-3.499,2.676-5.084,7.263-8.484,10.064c-2.272,1.871-4.853,3.304-5.061,6.594c-0.103,1.628,0.664,3.37,2.12,4.106
				C122.336,85.73,125.235,80.077,127.462,77.431z"/>
		</g>
	</g>
</g>
</svg>
